<svg width="44" height="31" viewBox="0 0 44 31" fill="none" xmlns="http://www.w3.org/2000/svg">
<path d="M32.9125 14.6494C32.7969 14.1108 32.5851 13.6877 32.2771 13.3801C32.2001 13.3032 32.0654 13.2264 31.873 13.1496C31.7191 13.1113 31.6036 13.0729 31.5266 13.0345C31.4112 12.9576 30.7378 12.8813 29.5064 12.8054C28.275 12.7681 26.8128 12.7309 25.1197 12.694C23.4266 12.657 21.6565 12.6394 19.8095 12.6411C18.001 12.6427 16.4233 12.7019 15.0766 12.8185C13.9607 12.935 12.8642 13.2245 11.7869 13.6873C10.7482 14.1885 10.0751 14.9971 9.76769 16.1133C9.69106 16.9599 9.8068 17.7487 10.1149 18.4795C10.4615 19.2488 11.0197 19.8254 11.7894 20.2095C12.6746 20.632 13.5982 20.8043 14.5602 20.7265C15.5606 20.6871 16.5419 20.7632 17.5039 20.9547C17.4272 21.4935 17.4082 22.09 17.4469 22.7441C17.4857 23.4367 17.5052 24.1293 17.5054 24.8219C17.5057 25.5145 17.4867 26.1879 17.4485 26.8421C17.4103 27.5348 17.3143 28.1506 17.1606 28.6894C15.1599 29.3454 13.1591 29.5203 11.158 29.2143C9.19544 28.9083 7.42513 28.2365 5.84707 27.199C4.26901 26.1614 2.96018 24.7966 1.92058 23.1044C0.919479 21.4507 0.399279 19.5657 0.359982 17.4494C0.16705 16.0643 0.1665 14.6405 0.358333 13.1782C0.511686 11.7158 0.876713 10.3494 1.45341 9.0791C2.0686 7.80872 2.91473 6.73053 3.99181 5.84452C5.06891 4.997 6.41549 4.49555 8.03157 4.34017C9.4168 4.26195 10.8598 4.20293 12.3604 4.16309C13.8611 4.12325 15.535 4.08326 17.382 4.0431C19.2675 4.0414 21.3838 4.03948 23.7311 4.03735C26.1168 4.07367 28.8681 4.10966 31.985 4.14532C32.6391 4.06777 33.2932 4.08642 33.9474 4.20126C34.6401 4.35455 35.2751 4.54637 35.8524 4.77673C36.853 5.12214 37.7767 5.54458 38.6234 6.04404C39.4702 6.58199 40.2207 7.21622 40.8752 7.94674C41.1832 8.36973 41.4335 8.83126 41.6261 9.33132C41.8571 9.83134 42.0497 10.3506 42.2039 10.8892C42.7817 12.6587 43.0133 14.4094 42.8985 16.141C42.7837 17.8727 42.3803 19.4892 41.6883 20.9905C41.0347 22.5303 40.1502 23.9164 39.0348 25.1487C37.9194 26.3811 36.6307 27.3635 35.1688 28.0959C33.7453 28.8283 32.1871 29.2722 30.494 29.4277C28.801 29.5831 27.0693 29.3538 25.299 28.7398C24.9906 27.3163 24.8747 25.9119 24.9511 24.5266C25.066 23.1797 25.2579 21.775 25.5267 20.3125C26.2577 20.1964 27.085 20.1187 28.0085 20.0794C28.932 20.0786 29.7785 19.9816 30.548 19.7885C31.356 19.5954 32.01 19.2293 32.51 18.6901C33.0101 18.1894 33.2407 17.3811 33.2017 16.2653C33.1246 15.7651 33.0282 15.2265 32.9125 14.6494Z" fill="#474935"/>
<path d="M32.9121 12.4191C32.7965 11.8805 32.5847 11.4574 32.2767 11.1498C32.1998 11.0729 32.065 10.9961 31.8726 10.9193C31.7187 10.881 31.6032 10.8426 31.5263 10.8042C31.4108 10.7274 30.7374 10.651 29.506 10.5752C28.2746 10.5379 26.8124 10.5008 25.1193 10.4639C23.4262 10.427 21.6561 10.4094 19.8091 10.4111C18.0006 10.4128 16.423 10.472 15.0762 10.5887C13.9604 10.7052 12.8638 10.9948 11.7865 11.4576C10.7478 11.9588 10.0747 12.7675 9.76728 13.8837C9.69064 14.7303 9.80637 15.519 10.1145 16.2498C10.4611 17.0191 11.0192 17.5958 11.789 17.9799C12.6742 18.4023 13.5977 18.5746 14.5597 18.4967C15.5601 18.4573 16.5414 18.5334 17.5035 18.7249C17.4267 19.2636 17.4077 19.8601 17.4464 20.5142C17.4851 21.2068 17.5046 21.8994 17.5049 22.592C17.5052 23.2847 17.4862 23.9581 17.4479 24.6123C17.4097 25.3049 17.3138 25.9207 17.16 26.4596C15.1593 27.1156 13.1585 27.2906 11.1574 26.9846C9.19487 26.6786 7.42456 26.0069 5.84652 24.9694C4.26847 23.932 2.95966 22.5672 1.92008 20.875C0.918999 19.2214 0.398822 17.3364 0.359551 15.22C0.166636 13.8349 0.166104 12.4112 0.357954 10.9488C0.511325 9.48644 0.87637 8.12008 1.45309 6.84972C2.06828 5.57932 2.91443 4.5011 3.99152 3.61507C5.06863 2.76751 6.41522 2.26602 8.0313 2.11059C9.41653 2.03233 10.8595 1.97327 12.3602 1.93338C13.8609 1.8935 15.5347 1.85345 17.3817 1.81325C19.2672 1.81148 21.3836 1.8095 23.7308 1.80731C26.1165 1.84356 28.8678 1.87946 31.9847 1.91503C32.6388 1.83746 33.293 1.85608 33.9472 1.97091C34.6399 2.12418 35.2748 2.31598 35.8521 2.54632C36.8527 2.8917 37.7764 3.31411 38.6231 3.81355C39.4699 4.35147 40.2204 4.98568 40.8749 5.71618C41.1829 6.13917 41.4332 6.60068 41.6257 7.10074C41.8568 7.60075 42.0494 8.12005 42.2035 8.65862C42.7814 10.4281 43.0129 12.1787 42.8981 13.9104C42.7833 15.6421 42.3799 17.2586 41.6878 18.76C41.0342 20.2997 40.1497 21.6858 39.0343 22.9182C37.9188 24.1506 36.6301 25.133 35.1682 25.8655C33.7447 26.598 32.1865 27.0419 30.4934 27.1974C28.8004 27.3529 27.0687 27.1237 25.2985 26.5097C24.9901 25.0862 24.8741 23.6818 24.9506 22.2965C25.0655 20.9496 25.2574 19.5449 25.5262 18.0824C26.2573 17.9663 27.0845 17.8886 28.008 17.8492C28.9315 17.8484 29.778 17.7514 30.5476 17.5583C31.3556 17.3651 32.0096 16.999 32.5096 16.4598C33.0096 15.9591 33.2402 15.1508 33.2013 14.0349C33.1242 13.5348 33.0278 12.9961 32.9121 12.4191Z" fill="#7BA098"/>
</svg>
