<svg width="125" height="82" viewBox="0 0 125 82" fill="none" xmlns="http://www.w3.org/2000/svg">
<path d="M82.935 26.7248C82.725 25.7473 82.3405 24.9795 81.7815 24.4212C81.6418 24.2816 81.3973 24.1421 81.0481 24.0026C80.7687 23.933 80.5592 23.8633 80.4195 23.7935C80.2099 23.654 78.9879 23.5151 76.7533 23.3767C74.5188 23.3082 71.8653 23.24 68.7929 23.172C65.7205 23.1039 62.5084 23.0709 59.1567 23.0729C55.8748 23.0749 53.0119 23.1813 50.5681 23.3922C48.5432 23.6029 46.5535 24.1278 44.5988 24.9669C42.714 25.8757 41.4929 27.3428 40.9355 29.3681C40.7967 30.9044 41.0071 32.3358 41.5665 33.6621C42.1957 35.0583 43.2089 36.1051 44.6058 36.8026C46.2123 37.5697 47.8883 37.883 49.6339 37.7423C51.4494 37.6714 53.2301 37.81 54.976 38.1581C54.8369 39.1357 54.8026 40.2181 54.8731 41.4051C54.9437 42.662 54.9794 43.9188 54.9801 45.1757C54.9809 46.4326 54.9467 47.6546 54.8775 48.8417C54.8085 50.0986 54.6345 51.216 54.3558 52.1937C50.7255 53.3829 47.0947 53.6993 43.4633 53.1428C39.9018 52.5863 36.689 51.3662 33.825 49.4826C30.961 47.599 28.5854 45.1215 26.6982 42.0502C24.8809 39.0487 23.9362 35.6277 23.8642 31.7873C23.5135 29.2737 23.512 26.6901 23.8596 24.0365C24.1373 21.3829 24.7992 18.9036 25.8452 16.5987C26.9611 14.2937 28.4962 12.3376 30.4504 10.7305C32.4046 9.19311 34.848 8.28391 37.7806 8.00287C40.2943 7.86173 42.9128 7.75544 45.636 7.684C48.3592 7.61256 51.3967 7.54094 54.7483 7.46913C58.1699 7.46711 62.0104 7.46484 66.2698 7.46232C70.5992 7.52958 75.5918 7.59646 81.2479 7.66294C82.4349 7.52259 83.622 7.5568 84.8091 7.76558C86.0662 8.04414 87.2186 8.3926 88.2662 8.81094C90.0821 9.43831 91.7584 10.2054 93.2951 11.1123C94.8319 12.0889 96.1942 13.2403 97.3821 14.5663C97.9411 15.3341 98.3955 16.1717 98.7452 17.0793C99.1647 17.9868 99.5144 18.9292 99.7943 19.9067C100.844 23.1181 101.264 26.295 101.057 29.4373C100.849 32.5797 100.118 35.5129 98.8624 38.2369C97.677 41.0307 96.0725 43.5454 94.0488 45.7811C92.0252 48.0167 89.687 49.7987 87.0343 51.127C84.4515 52.4552 81.624 53.2599 78.5518 53.541C75.4795 53.8222 72.337 53.4051 69.1243 52.2897C68.5642 49.7064 68.3532 47.1579 68.4914 44.644C68.6994 42.1999 69.047 39.651 69.5343 36.9973C70.8609 36.787 72.3621 36.6465 74.0379 36.5757C75.7137 36.5747 77.2498 36.3992 78.6462 36.0493C80.1123 35.6993 81.299 35.0352 82.2062 34.0571C83.1134 33.1488 83.5315 31.6822 83.4605 29.6572C83.3203 28.7495 83.1451 27.7721 82.935 26.7248Z" fill="#474935"/>
<path d="M82.935 22.5436C82.725 21.5661 82.3405 20.7982 81.7815 20.24C81.6418 20.1004 81.3973 19.9609 81.0481 19.8214C80.7687 19.7518 80.5592 19.6821 80.4195 19.6123C80.2099 19.4728 78.9879 19.3339 76.7533 19.1955C74.5188 19.127 71.8653 19.0588 68.7929 18.9907C65.7205 18.9227 62.5084 18.8897 59.1567 18.8917C55.8748 18.8936 53.0119 19.0001 50.5681 19.211C48.5432 19.4217 46.5535 19.9466 44.5988 20.7856C42.714 21.6945 41.4929 23.1616 40.9355 25.1869C40.7967 26.7232 41.0071 28.1545 41.5665 29.4809C42.1957 30.8771 43.2089 31.9239 44.6058 32.6214C46.2123 33.3885 47.8883 33.7017 49.6339 33.5611C51.4494 33.4902 53.2301 33.6288 54.976 33.9769C54.8369 34.9545 54.8026 36.0369 54.8731 37.2239C54.9437 38.4807 54.9794 39.7376 54.9801 40.9945C54.9809 42.2514 54.9467 43.4734 54.8775 44.6605C54.8085 45.9174 54.6345 47.0348 54.3558 48.0125C50.7255 49.2017 47.0947 49.5181 43.4633 48.9616C39.9018 48.4051 36.689 47.185 33.825 45.3014C30.961 43.4177 28.5854 40.9403 26.6982 37.869C24.8809 34.8675 23.9362 31.4465 23.8642 27.6061C23.5135 25.0925 23.512 22.5089 23.8596 19.8552C24.1373 17.2016 24.7992 14.7224 25.8452 12.4175C26.9611 10.1125 28.4962 8.15643 30.4504 6.54925C32.4046 5.0119 34.848 4.1027 37.7806 3.82165C40.2943 3.68051 42.9128 3.57422 45.636 3.50279C48.3592 3.43135 51.3967 3.35973 54.7483 3.28792C58.1699 3.28589 62.0104 3.28362 66.2698 3.2811C70.5992 3.34837 75.5918 3.41525 81.2479 3.48173C82.4349 3.34137 83.622 3.37558 84.8091 3.58436C86.0662 3.86293 87.2186 4.21138 88.2662 4.62973C90.0821 5.2571 91.7584 6.02421 93.2951 6.93105C94.8319 7.90773 96.1942 9.05907 97.3821 10.3851C97.9411 11.1529 98.3955 11.9905 98.7452 12.8981C99.1647 13.8056 99.5144 14.748 99.7943 15.7254C100.844 18.9369 101.264 22.1138 101.057 25.2561C100.849 28.3985 100.118 31.3316 98.8624 34.0557C97.677 36.8494 96.0725 39.3642 94.0488 41.5998C92.0252 43.8355 89.687 45.6175 87.0343 46.9458C84.4515 48.274 81.624 49.0787 78.5518 49.3598C75.4795 49.641 72.337 49.2238 69.1243 48.1085C68.5642 45.5252 68.3532 42.9767 68.4914 40.4628C68.6994 38.0187 69.047 35.4698 69.5343 32.8161C70.8609 32.6058 72.3621 32.4653 74.0379 32.3945C75.7137 32.3935 77.2498 32.218 78.6462 31.868C80.1123 31.518 81.299 30.854 82.2062 29.8759C83.1134 28.9676 83.5315 27.501 83.4605 25.476C83.3203 24.5683 83.1451 23.5909 82.935 22.5436Z" fill="#7BA098"/>
<path d="M32.4514 62.1992C32.4796 62.6784 32.4937 63.1295 32.4937 63.5524C32.4937 64.3699 32.4443 65.1029 32.3457 65.7514C31.8805 65.6668 31.514 65.6245 31.2462 65.6245L30.2524 65.6033C29.8859 65.6033 29.7027 65.6245 29.7027 65.6668C29.6745 65.8641 29.6604 66.28 29.6604 66.9143C29.6604 68.1547 29.7097 71.4955 29.8084 76.9366C29.3996 77.007 28.9203 77.0423 28.3706 77.0423H27.7574C27.0526 77.0423 26.4042 77.0916 25.8122 77.1903C25.7699 77.1198 25.7346 76.9789 25.7064 76.7674C25.6923 76.5419 25.6923 76.3375 25.7064 76.1542V75.1182L25.7276 73.2152C25.7276 70.6497 25.6712 68.1477 25.5584 65.7091C25.4034 65.6386 25.1849 65.6033 24.903 65.6033L24.0572 65.6245C23.5779 65.6245 23.2326 65.5893 23.0211 65.5188C22.9789 65.4342 22.9436 65.2016 22.9154 64.821C22.8872 64.4404 22.8731 64.0105 22.8731 63.5312C22.8731 62.8264 22.8802 62.319 22.8943 62.0089H23.8035L24.6281 61.9877H25.8122L27.0385 61.9666C29.1388 61.9666 30.8515 62.0441 32.1765 62.1992H32.4514ZM40.6518 66.3645C40.6518 66.435 40.6589 66.5548 40.673 66.724C40.7012 66.8931 40.7153 67.0482 40.7153 67.1892C40.7012 67.5557 40.6941 68.1054 40.6941 68.8384C40.6941 69.8251 40.7012 70.5652 40.7153 71.0585V72.3272L40.7364 73.5958C40.7364 74.4275 40.7153 75.2803 40.673 76.1542V76.3657C40.673 76.5912 40.6448 76.7674 40.5884 76.8943C40.532 77.007 40.384 77.0846 40.1444 77.1269H37.4591C37.1349 77.0282 36.9728 76.8379 36.9728 76.556V76.408C36.6204 76.6335 36.2327 76.8168 35.8098 76.9577C35.387 77.0846 34.9782 77.148 34.5835 77.148C33.8364 77.148 33.2021 76.8449 32.6805 76.2388C32.1731 75.6327 31.7925 74.8856 31.5387 73.9975C31.285 73.0954 31.1581 72.2214 31.1581 71.3757C31.1581 70.4453 31.3273 69.6066 31.6656 68.8595C32.0039 68.0983 32.4691 67.4993 33.0611 67.0623C33.6531 66.6253 34.3086 66.3998 35.0275 66.3857C35.4645 66.3857 35.8733 66.4209 36.2539 66.4914C36.6345 66.5619 36.8741 66.6465 36.9728 66.7451C36.9728 66.6746 36.9587 66.583 36.9305 66.4703C36.9023 66.3575 36.9093 66.2729 36.9516 66.2165C36.9798 66.1883 37.0785 66.1742 37.2476 66.1742C37.5014 66.1742 37.8326 66.1954 38.2414 66.2377C38.6643 66.2659 38.9321 66.287 39.0449 66.3011L40.377 66.3645H40.6518ZM34.3932 71.7986C34.3932 72.4188 34.5341 72.9403 34.8161 73.3632C35.098 73.772 35.4786 73.9764 35.9578 73.9764C36.268 73.9764 36.4935 73.8918 36.6345 73.7227C36.7754 73.5535 36.86 73.328 36.8882 73.0461C36.9305 72.7641 36.9516 72.3413 36.9516 71.7774V71.2277C36.9516 70.6215 36.9375 70.2128 36.9093 70.0013C36.8952 69.7758 36.8318 69.6278 36.719 69.5573C36.6204 69.4727 36.4371 69.4304 36.1693 69.4304C35.7182 69.4304 35.3517 69.5573 35.0698 69.811C34.7879 70.0507 34.6046 70.3467 34.52 70.6991C34.4355 70.981 34.3932 71.3475 34.3932 71.7986ZM50.3271 69.8956C49.9747 69.952 49.58 69.9802 49.143 69.9802C48.4805 69.9802 47.7616 69.9026 46.9863 69.7476C47.0004 69.6912 47.0074 69.5996 47.0074 69.4727C47.0074 69.1767 46.9158 68.93 46.7326 68.7327C46.5493 68.5353 46.2815 68.4507 45.9291 68.4789C45.7176 68.5494 45.5414 68.6692 45.4005 68.8384C45.2736 68.9934 45.2102 69.1696 45.2102 69.367C45.2102 69.5925 45.2736 69.804 45.4005 70.0013C45.5273 70.1987 45.7106 70.3467 45.9502 70.4453H45.9291C46.9863 70.6004 47.8391 70.7836 48.4875 70.9951C49.1359 71.2065 49.6293 71.5307 49.9676 71.9677C50.3482 72.5879 50.5385 73.2082 50.5385 73.8284C50.5385 74.2936 50.4257 74.8433 50.2002 75.4776C49.876 76.1542 49.3474 76.6546 48.6144 76.9789C47.8955 77.3031 47.0638 77.4581 46.1194 77.444C44.5829 77.5004 43.3495 77.1903 42.4192 76.5137C41.5029 75.8371 41.0448 74.8715 41.0448 73.6169C41.6086 73.5465 42.1866 73.5112 42.7786 73.5112L44.8085 73.5535C44.8225 73.8918 44.9565 74.1737 45.2102 74.3993C45.4639 74.6107 45.7458 74.7164 46.056 74.7164C46.2815 74.7164 46.4788 74.6319 46.648 74.4627C46.8171 74.2795 46.8947 74.0398 46.8806 73.7438C46.9229 73.3773 46.8101 73.1236 46.5423 72.9826C46.2744 72.8276 45.8727 72.6937 45.3371 72.5809L45.0199 72.5175C44.442 72.3906 44.005 72.2637 43.709 72.1369C42.9337 71.8408 42.3275 71.418 41.8906 70.8682C41.4677 70.3044 41.2562 69.7194 41.2562 69.1133C41.2562 68.4648 41.4747 67.8587 41.9117 67.2949C42.3487 66.731 42.9407 66.3434 43.6878 66.132C44.1953 65.991 44.9353 65.9205 45.9079 65.9205C46.937 65.9205 47.8673 66.0192 48.699 66.2165C49.3756 66.4984 49.8689 66.9566 50.179 67.5909C50.5033 68.2111 50.6654 68.9441 50.6654 69.7899L50.3271 69.8956ZM57.4779 72.158C58.676 74.0187 59.6346 75.6679 60.3535 77.1057L59.0848 77.148C58.521 77.1762 58.077 77.1903 57.7527 77.1903C57.1184 77.1903 56.6533 77.1551 56.3572 77.0846C56.2727 76.9436 56.0471 76.5278 55.6806 75.8371L55.4058 75.3085C55.2507 75.0406 55.1732 74.8926 55.1732 74.8644L54.6657 73.8707V74.4416L54.6869 75.1182C54.6869 75.9639 54.6375 76.6335 54.5389 77.1269C54.3697 77.1128 53.8975 77.1057 53.1222 77.1057C52.6993 77.1339 52.3469 77.148 52.065 77.148C51.7831 77.148 51.473 77.1198 51.1347 77.0634C51.0783 75.5974 51.0501 73.9412 51.0501 72.0946C51.0501 71.0092 51.0642 69.3952 51.0924 67.2526C51.1206 65.0818 51.1347 63.1788 51.1347 61.5437C51.7126 61.5437 52.1143 61.5366 52.3399 61.5225H52.8685L53.4182 61.5014L54.1371 61.5437L54.6446 61.5648V66.7663L54.6234 67.2737C54.6093 67.4993 54.6023 67.8235 54.6023 68.2464L54.5811 68.5001C54.7362 68.3309 54.849 68.1759 54.9194 68.0349C54.9899 67.894 55.0463 67.7812 55.0886 67.6966C55.1168 67.6543 55.145 67.5979 55.1732 67.5275C55.2155 67.4429 55.2577 67.3654 55.3 67.2949V67.316C55.6665 66.6958 56.0119 66.1954 56.3361 65.8148C56.7449 65.9557 57.1537 66.0262 57.5625 66.0262C57.788 66.0262 58.1404 66.0121 58.6197 65.9839H58.7254C58.8663 65.9698 59.1201 65.9628 59.4866 65.9628C59.7826 65.9628 60.0152 65.9698 60.1843 65.9839C59.8178 66.5478 59.3738 67.1821 58.8522 67.8869C58.3448 68.5776 58.0347 68.9934 57.9219 69.1344C57.9078 69.1485 57.8162 69.2613 57.647 69.4727L57.3722 69.8322L56.611 70.8259C56.6814 70.9528 56.7519 71.0726 56.8224 71.1854C56.907 71.2841 56.9775 71.3757 57.0338 71.4603C57.1748 71.714 57.3228 71.9466 57.4779 72.158Z" fill="#7BA098"/>
<path d="M64.7212 66.4491C65.4542 66.4209 66.1026 66.3857 66.6665 66.3434L66.9625 66.3222C67.0611 66.3082 67.1598 66.3082 67.2585 66.3222C67.3713 66.3222 67.4629 66.3222 67.5334 66.3222H68.0197C68.0761 66.8861 68.1043 67.2103 68.1043 67.2949C68.1043 67.3654 68.0902 67.5838 68.062 67.9503L68.0408 68.1829L68.0197 68.6481C68.0197 68.7468 68.0338 68.9089 68.062 69.1344H64.7635C64.7635 71.3757 64.7564 72.75 64.7423 73.2575C64.9538 73.5253 65.3344 73.7227 65.8841 73.8495C66.4339 73.9764 67.0048 74.0398 67.5968 74.0398L68.0408 74.0187V74.209L68.062 74.2936V74.2724C68.1465 74.8644 68.1888 75.3931 68.1888 75.8582C68.1888 76.3093 68.1254 76.7181 67.9985 77.0846C67.632 77.1128 67.2585 77.1269 66.8779 77.1269C65.5952 77.1269 64.4675 76.9789 63.4948 76.6828C62.5363 76.3727 61.902 75.8512 61.5919 75.1182C61.465 74.357 61.3804 73.6029 61.3382 72.8558C61.2959 72.0946 61.2747 71.2277 61.2747 70.255V69.1978C61.0915 69.2119 60.9223 69.219 60.7673 69.219C60.6263 69.2049 60.4994 69.1978 60.3867 69.1978H59.7523L59.8158 66.4068C60.1964 66.4209 60.6968 66.428 61.317 66.428L61.3382 62.3895C61.6483 62.3613 61.9161 62.3472 62.1416 62.3472C62.3672 62.3472 62.635 62.3613 62.9451 62.3895L63.0931 62.4106C63.4314 62.4388 63.6922 62.4529 63.8754 62.4529C64.1433 62.4529 64.4181 62.4317 64.7001 62.3895V66.2377L64.7212 66.4491ZM72.1791 66.0262C72.2496 66.0403 72.5033 66.0474 72.9403 66.0474C73.0249 66.0333 73.2011 66.0262 73.4689 66.0262C73.6381 66.0262 73.7579 66.0333 73.8283 66.0474C74.3217 66.0756 74.7869 66.1742 75.2239 66.3434C75.6749 66.4984 76.0344 66.7099 76.3022 66.9777C76.711 67.3019 76.9788 67.8094 77.1057 68.5001C77.2325 69.1908 77.296 69.9943 77.296 70.9105V71.6083C77.2537 72.8064 77.1832 73.8143 77.0845 74.6319C76.9859 75.4494 76.8167 75.9992 76.5771 76.2811C76.2952 76.6758 75.8864 76.9507 75.3507 77.1057C74.8292 77.2608 74.216 77.3383 73.5112 77.3383C73.2434 77.3383 72.8698 77.3242 72.3906 77.296C71.9395 77.2678 71.5941 77.2537 71.3545 77.2537C70.6074 77.1128 69.9519 76.7956 69.3881 76.3022C68.9511 75.8794 68.6481 75.3508 68.4789 74.7164C68.3097 74.068 68.2252 73.3421 68.2252 72.5386L68.204 70.1282C68.1617 69.7476 68.204 69.1978 68.3309 68.4789C68.4719 67.76 68.6128 67.3513 68.7538 67.2526C68.9088 66.8579 69.3106 66.5548 69.959 66.3434C70.6215 66.132 71.3615 66.0262 72.1791 66.0262ZM71.7351 70.2973C71.721 70.4383 71.7069 70.6356 71.6928 70.8894C71.6787 71.129 71.6717 71.3122 71.6717 71.4391L71.6505 71.862C71.6505 72.2144 71.6364 72.602 71.6082 73.0249C71.6223 73.335 71.7421 73.5888 71.9677 73.7861C72.1932 73.9834 72.4469 74.0821 72.7289 74.0821C73.0108 74.0821 73.2927 74.0187 73.5746 73.8918C73.6592 73.8495 73.7649 73.6169 73.8918 73.1941L73.9129 73.0883C73.9975 72.3835 74.0398 71.869 74.0398 71.5448C74.0398 71.2065 74.0116 70.9035 73.9552 70.6356C73.8847 70.2691 73.7438 69.9802 73.5323 69.7687C73.335 69.5573 73.0813 69.4516 72.7711 69.4516C72.7148 69.4516 72.602 69.4657 72.4328 69.4939C72.0804 69.6066 71.876 69.7617 71.8197 69.959L71.7351 70.2973ZM78.0411 79.9179C78.0411 78.5929 78.0129 76.6476 77.9566 74.0821C77.9143 72.4752 77.8931 70.7836 77.8931 69.0075C77.8931 67.7812 77.9002 66.8931 77.9143 66.3434H78.5063L79.0561 66.3222L81.403 66.3645C81.4171 66.3786 81.4242 66.5337 81.4242 66.8297C81.692 66.4914 82.0585 66.3222 82.5237 66.3222C82.7633 66.3222 83.0311 66.3434 83.3272 66.3857C84.3844 66.4844 85.1878 66.8227 85.7376 67.4006C86.2873 67.9785 86.6538 68.6763 86.8371 69.4939C87.0203 70.2973 87.1331 71.2841 87.1754 72.454C87.1754 73.5112 87.0133 74.4486 86.6891 75.2662C86.3648 76.0697 85.8856 76.5983 85.2513 76.852C84.7156 77.0493 84.0461 77.148 83.2426 77.148C82.4673 77.148 81.8541 77.0846 81.403 76.9577L81.4242 77.6978C81.4383 77.9515 81.4453 78.2898 81.4453 78.7127C81.4453 78.9664 81.4312 79.4457 81.403 80.1505C81.3749 80.4183 81.3537 80.7989 81.3396 81.2922C81.255 81.3486 81.0224 81.398 80.6419 81.4403C80.2613 81.4825 79.8525 81.5037 79.4155 81.5037C78.7953 81.5037 78.3372 81.4614 78.0411 81.3768V79.9179ZM84.1306 71.862C84.1306 71.1431 83.9826 70.5229 83.6866 70.0013C83.3906 69.4657 83.0029 69.1978 82.5237 69.1978C82.0021 69.1978 81.6709 69.4375 81.5299 69.9167C81.3889 70.3819 81.3185 71.129 81.3185 72.158C81.3185 72.9192 81.3326 73.4478 81.3608 73.7438C81.403 74.0398 81.4876 74.2372 81.6145 74.3358C81.7413 74.4345 81.9669 74.4839 82.2911 74.4839C82.7704 74.4839 83.158 74.364 83.454 74.1244C83.75 73.8707 83.9333 73.5112 84.0038 73.0461C84.0461 72.7641 84.0742 72.5386 84.0883 72.3694C84.1165 72.2003 84.1306 72.0311 84.1306 71.862ZM91.2322 61.7128C91.2322 62.0934 91.2393 62.4106 91.2534 62.6643C91.2534 62.8053 91.2675 63.059 91.2957 63.4255L91.3379 64.7787C91.2675 64.8633 91.1547 64.9056 90.9996 64.9056C90.901 64.9056 90.7671 64.8985 90.5979 64.8845C90.4288 64.8563 90.2878 64.8422 90.175 64.8422C90.0059 64.8422 89.738 64.8281 89.3715 64.7999C89.2306 64.7858 88.991 64.7787 88.6527 64.7787C88.2862 64.7787 88.0042 64.7858 87.8069 64.7999C87.8069 64.5039 87.7928 64.1162 87.7646 63.637L87.7435 63.2986C87.7153 62.6784 87.7082 62.1287 87.7223 61.6494L91.2322 61.7128ZM91.3168 66.3645C91.3168 67.0975 91.3027 68.1688 91.2745 69.5784L91.2534 70.7625C91.2252 72.0593 91.2111 73.032 91.2111 73.6804C91.2111 74.8926 91.2393 75.9569 91.2957 76.8731C91.2252 76.9718 91.0772 77.0352 90.8516 77.0634C90.6402 77.1057 90.3442 77.1269 89.9636 77.1269C89.5266 77.1269 89.2235 77.1198 89.0544 77.1057C88.5046 77.0775 88.0395 77.1198 87.6589 77.2326C87.7294 76.2881 87.7646 75.3367 87.7646 74.3781C87.7646 73.7861 87.7505 72.9121 87.7223 71.7563C87.6941 70.7977 87.68 69.9661 87.68 69.2613C87.68 68.2182 87.7223 67.2103 87.8069 66.2377C88.0042 66.2095 88.1734 66.1954 88.3143 66.1954C88.4412 66.1954 88.5399 66.2024 88.6104 66.2165C89.4843 66.2588 90.168 66.2729 90.6613 66.2588L91.3168 66.3645ZM101.255 66.3645C101.255 66.435 101.262 66.5548 101.276 66.724C101.305 66.8931 101.319 67.0482 101.319 67.1892C101.305 67.5557 101.297 68.1054 101.297 68.8384C101.297 69.8251 101.305 70.5652 101.319 71.0585V72.3272L101.34 73.5958C101.34 74.4275 101.319 75.2803 101.276 76.1542V76.3657C101.276 76.5912 101.248 76.7674 101.192 76.8943C101.135 77.007 100.987 77.0846 100.748 77.1269H98.0624C97.7382 77.0282 97.5761 76.8379 97.5761 76.556V76.408C97.2237 76.6335 96.8361 76.8168 96.4132 76.9577C95.9903 77.0846 95.5815 77.148 95.1868 77.148C94.4397 77.148 93.8054 76.8449 93.2839 76.2388C92.7764 75.6327 92.3958 74.8856 92.1421 73.9975C91.8884 73.0954 91.7615 72.2214 91.7615 71.3757C91.7615 70.4453 91.9306 69.6066 92.2689 68.8595C92.6072 68.0983 93.0724 67.4993 93.6645 67.0623C94.2565 66.6253 94.912 66.3998 95.6309 66.3857C96.0678 66.3857 96.4766 66.4209 96.8572 66.4914C97.2378 66.5619 97.4774 66.6465 97.5761 66.7451C97.5761 66.6746 97.562 66.583 97.5338 66.4703C97.5056 66.3575 97.5127 66.2729 97.555 66.2165C97.5832 66.1883 97.6818 66.1742 97.851 66.1742C98.1047 66.1742 98.436 66.1954 98.8447 66.2377C99.2676 66.2659 99.5355 66.287 99.6482 66.3011L100.98 66.3645H101.255ZM94.9965 71.7986C94.9965 72.4188 95.1375 72.9403 95.4194 73.3632C95.7013 73.772 96.0819 73.9764 96.5612 73.9764C96.8713 73.9764 97.0968 73.8918 97.2378 73.7227C97.3788 73.5535 97.4633 73.328 97.4915 73.0461C97.5338 72.7641 97.555 72.3413 97.555 71.7774V71.2277C97.555 70.6215 97.5409 70.2128 97.5127 70.0013C97.4986 69.7758 97.4351 69.6278 97.3224 69.5573C97.2237 69.4727 97.0405 69.4304 96.7726 69.4304C96.3216 69.4304 95.9551 69.5573 95.6731 69.811C95.3912 70.0507 95.208 70.3467 95.1234 70.6991C95.0388 70.981 94.9965 71.3475 94.9965 71.7986Z" fill="#474935"/>
</svg>
