<svg width="24" height="23" viewBox="0 0 24 23" fill="none" xmlns="http://www.w3.org/2000/svg">
<g filter="url(#filter0_d_240_131)">
<circle cx="12" cy="11" r="11" fill="#A3A569"/>
</g>
<g filter="url(#filter1_d_240_131)">
<circle cx="11.4923" cy="10.8308" r="10.4923" fill="#FDFF8A"/>
</g>
<path d="M14.8307 11.1383C14.7946 10.9702 14.7285 10.8382 14.6324 10.7423C14.6084 10.7183 14.5664 10.6944 14.5063 10.6704C14.4583 10.6585 14.4223 10.6465 14.3982 10.6345C14.3622 10.6106 14.1521 10.5868 13.7678 10.5633C13.3836 10.5518 12.9273 10.5403 12.3989 10.529C11.8706 10.5177 11.3182 10.5124 10.7418 10.5131C10.1775 10.5138 9.68516 10.5325 9.2649 10.569C8.91669 10.6055 8.57449 10.696 8.23831 10.8405C7.91414 10.997 7.70408 11.2494 7.60811 11.5978C7.58417 11.862 7.62026 12.1081 7.71638 12.3361C7.82452 12.5762 7.99868 12.756 8.23887 12.8758C8.51509 13.0076 8.80329 13.0612 9.10347 13.0368C9.41567 13.0244 9.72188 13.048 10.0221 13.1077C9.99812 13.2758 9.99217 13.462 10.0042 13.6661C10.0163 13.8822 10.0224 14.0983 10.0224 14.3145C10.0225 14.5306 10.0165 14.7408 10.0046 14.9449C9.99263 15.1611 9.96267 15.3532 9.91468 15.5214C9.29033 15.7263 8.66594 15.7812 8.04151 15.6859C7.42909 15.5906 6.87668 15.3812 6.38427 15.0576C5.89186 14.734 5.48348 14.3083 5.15913 13.7803C4.84678 13.2644 4.68452 12.6762 4.67233 12.0158C4.61217 11.5836 4.61205 11.1393 4.67196 10.6829C4.71987 10.2266 4.83382 9.80016 5.01383 9.40367C5.20585 9.00717 5.46992 8.67062 5.80607 8.39401C6.14221 8.12941 6.56244 7.97277 7.06675 7.9241C7.49903 7.89953 7.94931 7.88095 8.41761 7.86835C8.88591 7.85574 9.40825 7.84307 9.98462 7.83033C10.573 7.82958 11.2334 7.82874 11.9659 7.82781C12.7104 7.83887 13.5689 7.84978 14.5416 7.86055C14.7457 7.83627 14.9498 7.84202 15.154 7.87778C15.3701 7.92554 15.5683 7.98532 15.7484 8.05714C16.0606 8.16481 16.3489 8.29653 16.6131 8.4523C16.8773 8.62007 17.1115 8.8179 17.3157 9.04579C17.4118 9.17775 17.4899 9.32175 17.55 9.47777C17.6221 9.63378 17.6821 9.79581 17.7302 9.96386C17.9105 10.516 17.9827 11.0622 17.9468 11.6026C17.9109 12.143 17.785 12.6475 17.569 13.1161C17.365 13.5967 17.0889 14.0293 16.7408 14.414C16.3927 14.7987 15.9905 15.1054 15.5343 15.3341C15.09 15.5628 14.6038 15.7015 14.0754 15.7503C13.5471 15.799 13.0067 15.7276 12.4543 15.5362C12.3581 15.092 12.322 14.6538 12.3459 14.2215C12.3818 13.8011 12.4417 13.3628 12.5257 12.9064C12.7538 12.8701 13.012 12.8457 13.3001 12.8334C13.5883 12.833 13.8525 12.8026 14.0926 12.7423C14.3448 12.6819 14.5489 12.5676 14.7049 12.3993C14.861 12.243 14.933 11.9907 14.9209 11.6425C14.8968 11.4864 14.8667 11.3184 14.8307 11.1383Z" fill="#474935"/>
<g filter="url(#filter2_d_240_131)">
<path d="M14.8308 10.7627C14.7947 10.5946 14.7286 10.4626 14.6325 10.3667C14.6085 10.3427 14.5665 10.3187 14.5064 10.2948C14.4584 10.2828 14.4224 10.2708 14.3983 10.2589C14.3623 10.2349 14.1522 10.2111 13.7679 10.1875C13.3837 10.176 12.9274 10.1645 12.399 10.1531C11.8707 10.1417 11.3183 10.1363 10.7419 10.137C10.1776 10.1376 9.68525 10.1562 9.26499 10.1927C8.91678 10.2292 8.57458 10.3196 8.23841 10.4641C7.91425 10.6206 7.70419 10.873 7.60823 11.2213C7.5843 11.4855 7.62039 11.7316 7.71653 11.9597C7.82467 12.1997 7.99884 12.3796 8.23903 12.4994C8.51525 12.6312 8.80345 12.6849 9.10364 12.6605C9.41583 12.6482 9.72204 12.6718 10.0223 12.7315C9.99829 12.8996 9.99234 13.0858 10.0044 13.2899C10.0165 13.506 10.0226 13.7222 10.0226 13.9383C10.0227 14.1544 10.0167 14.3646 10.0048 14.5687C9.99285 14.7849 9.96289 14.977 9.91491 15.1452C9.29057 15.35 8.66618 15.4048 8.04175 15.3095C7.42932 15.2141 6.8769 15.0046 6.38449 14.681C5.89207 14.3573 5.48368 13.9315 5.15931 13.4036C4.84695 12.8876 4.68467 12.2994 4.67246 11.639C4.61229 11.2068 4.61215 10.7625 4.67205 10.3061C4.71995 9.84976 4.83389 9.42335 5.01389 9.02689C5.20589 8.63041 5.46996 8.29389 5.8061 8.01732C6.14223 7.75276 6.56246 7.59617 7.06677 7.54756C7.49904 7.52305 7.94933 7.50451 8.41763 7.49197C8.88593 7.47942 9.40826 7.46681 9.98463 7.45413C10.573 7.45345 11.2334 7.45269 11.9659 7.45185C12.7104 7.46299 13.569 7.47401 14.5416 7.4849C14.7457 7.46064 14.9498 7.46641 15.154 7.5022C15.3701 7.54998 15.5683 7.60979 15.7484 7.68163C16.0607 7.78934 16.3489 7.92109 16.6131 8.07689C16.8773 8.24469 17.1115 8.44255 17.3157 8.67046C17.4118 8.80244 17.4899 8.94644 17.55 9.10247C17.6221 9.25849 17.6822 9.42053 17.7303 9.58858C17.9106 10.1407 17.9828 10.687 17.9469 11.2274C17.9111 11.7678 17.7851 12.2723 17.5691 12.7408C17.3652 13.2214 17.0891 13.654 16.741 14.0386C16.3929 14.4233 15.9907 14.7299 15.5345 14.9586C15.0903 15.1873 14.604 15.3259 14.0757 15.3745C13.5473 15.4232 13.007 15.3518 12.4546 15.1603C12.3584 14.7161 12.3222 14.2779 12.3461 13.8455C12.382 13.4252 12.4419 12.9869 12.5258 12.5305C12.7539 12.4942 13.0121 12.4699 13.3003 12.4575C13.5885 12.4572 13.8526 12.4269 14.0928 12.3666C14.3449 12.3062 14.549 12.1919 14.7051 12.0236C14.8611 11.8674 14.9331 11.6151 14.921 11.2669C14.8969 11.1108 14.8668 10.9428 14.8308 10.7627Z" fill="#E1E444"/>
</g>
<defs>
<filter id="filter0_d_240_131" x="0.548718" y="0" width="22.9026" height="22.9026" filterUnits="userSpaceOnUse" color-interpolation-filters="sRGB">
<feFlood flood-opacity="0" result="BackgroundImageFix"/>
<feColorMatrix in="SourceAlpha" type="matrix" values="0 0 0 0 0 0 0 0 0 0 0 0 0 0 0 0 0 0 127 0" result="hardAlpha"/>
<feOffset dy="0.451282"/>
<feGaussianBlur stdDeviation="0.225641"/>
<feComposite in2="hardAlpha" operator="out"/>
<feColorMatrix type="matrix" values="0 0 0 0 0 0 0 0 0 0 0 0 0 0 0 0 0 0 0.25 0"/>
<feBlend mode="normal" in2="BackgroundImageFix" result="effect1_dropShadow_240_131"/>
<feBlend mode="normal" in="SourceGraphic" in2="effect1_dropShadow_240_131" result="shape"/>
</filter>
<filter id="filter1_d_240_131" x="0.548718" y="0.33847" width="21.8872" height="21.8872" filterUnits="userSpaceOnUse" color-interpolation-filters="sRGB">
<feFlood flood-opacity="0" result="BackgroundImageFix"/>
<feColorMatrix in="SourceAlpha" type="matrix" values="0 0 0 0 0 0 0 0 0 0 0 0 0 0 0 0 0 0 127 0" result="hardAlpha"/>
<feOffset dy="0.451282"/>
<feGaussianBlur stdDeviation="0.225641"/>
<feComposite in2="hardAlpha" operator="out"/>
<feColorMatrix type="matrix" values="0 0 0 0 0 0 0 0 0 0 0 0 0 0 0 0 0 0 0.25 0"/>
<feBlend mode="normal" in2="BackgroundImageFix" result="effect1_dropShadow_240_131"/>
<feBlend mode="normal" in="SourceGraphic" in2="effect1_dropShadow_240_131" result="shape"/>
</filter>
<filter id="filter2_d_240_131" x="4.35541" y="7.44489" width="14.3237" height="8.91523" filterUnits="userSpaceOnUse" color-interpolation-filters="sRGB">
<feFlood flood-opacity="0" result="BackgroundImageFix"/>
<feColorMatrix in="SourceAlpha" type="matrix" values="0 0 0 0 0 0 0 0 0 0 0 0 0 0 0 0 0 0 127 0" result="hardAlpha"/>
<feOffset dx="0.225641" dy="0.451282"/>
<feGaussianBlur stdDeviation="0.225641"/>
<feComposite in2="hardAlpha" operator="out"/>
<feColorMatrix type="matrix" values="0 0 0 0 0 0 0 0 0 0 0 0 0 0 0 0 0 0 0.25 0"/>
<feBlend mode="normal" in2="BackgroundImageFix" result="effect1_dropShadow_240_131"/>
<feBlend mode="normal" in="SourceGraphic" in2="effect1_dropShadow_240_131" result="shape"/>
</filter>
</defs>
</svg>
